{"title":"Jennifer Lopez Ft. Iggy Azalea - Booty [Music Video] 720p [Sbyky","uid":11175919,"size":49800769,"categoryP":"video","categoryS":"music_videos","magnet":"?xt=urn:btih:c878b0b263abe1033448cbc78f54438773439030&amp;dn=Jennifer+Lopez+Ft.+Iggy+Azalea+-+Booty+%5BMusic+Video%5D+720p+%5BSbyky&amp;tr=udp%3A%2F%2Ftracker.openbittorrent.com%3A80&amp;tr=udp%3A%2F%2Fopen.demonii.com%3A1337&amp;tr=udp%3A%2F%2Ftracker.coppersurfer.tk%3A6969&amp;tr=udp%3A%2F%2Fexodus.desync.com%3A6969","seeders":6,"leechers":0,"uploader":"Sbyky","files":1,"time":1412785710,"description":"General\nComplete name                            : Jennifer Lopez Ft. Iggy Azalea - Booty [Music Video] 720p [Sbyky].MP4\nFormat                                   : MPEG-4\nFormat profile                           : Base Media\nCodec ID                                 : isom\nFile size                                : 47.5 MiB\nDuration                                 : 4mn 16s\nOverall bit rate mode                    : Variable\nOverall bit rate                         : 1 551 Kbps\nEncoded date                             : UTC 2014-09-27 04:47:05\nTagged date                              : UTC 2014-09-27 04:47:05\n\nVideo\nID                                       : 1\nFormat                                   : AVC\nFormat/Info                              : Advanced Video Codec\nFormat profile                           : &lt;a class=&quot;__cf_email__&quot; href=&quot;/cdn-cgi/l/email-protection&quot; data-cfemail=&quot;5c113d35321c106f726d&quot;&gt;[email&amp;#160;protected]&lt;/a&gt;&lt;script cf-hash='f9e31' type=&quot;text/javascript&quot;&gt;\n/* &lt;![CDATA[ */!function(){try{var t=&quot;currentScript&quot;in document?document.currentScript:function(){for(var t=document.getElementsByTagName(&quot;script&quot;),e=t.length;e--;)if(t[e].getAttribute(&quot;cf-hash&quot;))return t[e]}();if(t&amp;&amp;t.previousSibling){var e,r,n,i,c=t.previousSibling,a=c.getAttribute(&quot;data-cfemail&quot;);if(a){for(e=&quot;&quot;,r=parseInt(a.substr(0,2),16),n=2;a.length-n;n+=2)i=parseInt(a.substr(n,2),16)^r,e+=String.fromCharCode(i);e=document.createTextNode(e),c.parentNode.replaceChild(e,c)}}}catch(u){}}();/* ]]&gt; */&lt;/script&gt;\nFormat settings, CABAC                   : Yes\nFormat settings, ReFrames                : 3 frames\nCodec ID                                 : avc1\nCodec ID/Info                            : Advanced Video Coding\nDuration                                 : 4mn 16s\nBit rate                                 : 1 421 Kbps\nWidth                                    : 1 280 pixels\nHeight                                   : 720 pixels\nDisplay aspect ratio                     : 16:9\nFrame rate mode                          : Variable\nFrame rate                               : 23.976 fps\nMinimum frame rate                       : 23.974 fps\nMaximum frame rate                       : 23.981 fps\nColor space                              : YUV\nChroma subsampling                       : 4:2:0\nBit depth                                : 8 bits\nScan type                                : Progressive\nBits/(Pixel*Frame)                       : 0.064\nStream size                              : 43.5 MiB (92%)\nEncoded date                             : UTC 2014-09-27 04:47:05\nTagged date                              : UTC 2014-09-27 04:47:05\n\nAudio\nID                                       : 2\nFormat                                   : AAC\nFormat/Info                              : Advanced Audio Codec\nFormat profile                           : LC\nCodec ID                                 : 40\nDuration                                 : 4mn 16s\nBit rate mode                            : Variable\nBit rate                                 : 126 Kbps\nChannel(s)                               : 2 channels\nChannel positions                        : Front: L R\nSampling rate                            : 44.1 KHz\nCompression mode                         : Lossy\nStream size                              : 3.85 MiB (8%)\nEncoded date                             : UTC 2014-09-27 04:44:53\nTagged date                              : UTC 2014-09-27 04:44:53\n\nShared By Sbyky\n","torrent":{"xt":"urn:btih:c878b0b263abe1033448cbc78f54438773439030","amp;dn":"Jennifer+Lopez+Ft.+Iggy+Azalea+-+Booty+%5BMusic+Video%5D+720p+%5BSbyky","amp;tr":["udp%3A%2F%2Ftracker.openbittorrent.com%3A80","udp%3A%2F%2Fopen.demonii.com%3A1337","udp%3A%2F%2Ftracker.coppersurfer.tk%3A6969","udp%3A%2F%2Fexodus.desync.com%3A6969"],"infoHash":"c878b0b263abe1033448cbc78f54438773439030","infoHashBuffer":{"type":"Buffer","data":[200,120,176,178,99,171,225,3,52,72,203,199,143,84,67,135,115,67,144,48]},"announce":[],"urlList":[]}}